<svg width="85" height="85" viewBox="0 0 85 85" fill="none" xmlns="http://www.w3.org/2000/svg">
<rect width="85" height="85" rx="42.5" fill="#17181F"/>
<path d="M36.1379 30.2346C35.9274 30.4446 35.7604 30.6941 35.6465 30.9688C35.5325 31.2435 35.4739 31.5379 35.4739 31.8353C35.4739 32.1326 35.5325 32.427 35.6465 32.7017C35.7604 32.9764 35.9274 33.2259 36.1379 33.4359L44.9472 42.2452L36.1379 51.0545C35.7133 51.4791 35.4748 52.0548 35.4748 52.6552C35.4748 53.2556 35.7133 53.8313 36.1379 54.2559C36.5624 54.6804 37.1382 54.9189 37.7385 54.9189C38.3389 54.9189 38.9147 54.6804 39.3392 54.2559L49.7605 43.8345C49.971 43.6245 50.138 43.375 50.2519 43.1003C50.3658 42.8257 50.4245 42.5312 50.4245 42.2339C50.4245 41.9365 50.3658 41.6421 50.2519 41.3674C50.138 41.0928 49.971 40.8433 49.7605 40.6332L39.3392 30.2119C38.4764 29.3491 37.0233 29.3491 36.1379 30.2346Z" fill="#EEEDF0"/>
</svg>
